<svg width="39" height="39" viewBox="0 0 39 39" fill="none" xmlns="http://www.w3.org/2000/svg">
<path d="M35.0242 6.49994C34.8765 6.48472 34.7277 6.48472 34.58 6.49994H4.24665C4.05224 6.50293 3.85912 6.53208 3.67249 6.5866L19.3267 22.1758L35.0242 6.49994Z" fill="white"/>
<path d="M36.6275 8.00586L20.8542 23.7142C20.4482 24.1177 19.8991 24.3442 19.3267 24.3442C18.7543 24.3442 18.2051 24.1177 17.7992 23.7142L2.16665 8.12503C2.1186 8.30165 2.09312 8.48366 2.09082 8.66669V30.3334C2.09082 30.908 2.31909 31.4591 2.72542 31.8654C3.13175 32.2718 3.68285 32.5 4.25749 32.5H34.5908C35.1655 32.5 35.7166 32.2718 36.1229 31.8654C36.5292 31.4591 36.7575 30.908 36.7575 30.3334V8.66669C36.7489 8.44099 36.705 8.21801 36.6275 8.00586V8.00586ZM5.74165 30.3334H4.23582V28.7842L12.1117 20.9734L13.6392 22.5009L5.74165 30.3334ZM34.5692 30.3334H33.0525L25.155 22.5009L26.6825 20.9734L34.5583 28.7842L34.5692 30.3334Z" fill="white"/>
</svg>
