<svg width="41" height="41" viewBox="0 0 41 41" fill="none" xmlns="http://www.w3.org/2000/svg">
<path d="M26.65 20.5001C26.65 22.1312 26.0021 23.6954 24.8487 24.8488C23.6954 26.0021 22.1311 26.6501 20.5 26.6501C18.8689 26.6501 17.3046 26.0021 16.1513 24.8488C14.998 23.6954 14.35 22.1312 14.35 20.5001C14.35 20.1495 14.3869 19.8072 14.4505 19.4751H12.3V27.6689C12.3 28.2388 12.7613 28.7001 13.3312 28.7001H27.6709C27.944 28.6995 28.2058 28.5906 28.3987 28.3973C28.5917 28.204 28.7 27.942 28.7 27.6689V19.4751H26.5496C26.6131 19.8072 26.65 20.1495 26.65 20.5001V20.5001ZM20.5 24.6001C21.0386 24.5999 21.5718 24.4937 22.0693 24.2875C22.5668 24.0813 23.0189 23.7791 23.3996 23.3982C23.7803 23.0173 24.0823 22.5651 24.2882 22.0675C24.4942 21.5699 24.6001 21.0366 24.6 20.498C24.5999 19.9595 24.4937 19.4262 24.2874 18.9287C24.0812 18.4312 23.779 17.9792 23.3981 17.5985C23.0172 17.2177 22.565 16.9158 22.0674 16.7098C21.5698 16.5038 21.0365 16.3979 20.498 16.398C19.4103 16.3983 18.3673 16.8306 17.5984 17.5999C16.8295 18.3692 16.3977 19.4124 16.398 20.5001C16.3982 21.5877 16.8306 22.6307 17.5998 23.3996C18.3691 24.1685 19.4123 24.6003 20.5 24.6001V24.6001ZM25.42 16.1951H27.878C28.0413 16.1951 28.1979 16.1303 28.3136 16.0151C28.4292 15.8998 28.4945 15.7434 28.495 15.5801V13.1221C28.495 12.9585 28.43 12.8015 28.3143 12.6858C28.1986 12.5701 28.0416 12.5051 27.878 12.5051H25.42C25.2564 12.5051 25.0994 12.5701 24.9837 12.6858C24.868 12.8015 24.803 12.9585 24.803 13.1221V15.5801C24.805 15.9183 25.0818 16.1951 25.42 16.1951V16.1951ZM20.5 0.820068C15.2805 0.820068 10.2749 2.89349 6.58415 6.58421C2.89343 10.2749 0.820007 15.2806 0.820007 20.5001C0.820007 25.7195 2.89343 30.7252 6.58415 34.4159C10.2749 38.1066 15.2805 40.1801 20.5 40.1801C23.0844 40.1801 25.6435 39.671 28.0312 38.682C30.4189 37.693 32.5884 36.2434 34.4159 34.4159C36.2433 32.5885 37.6929 30.419 38.682 28.0313C39.671 25.6436 40.18 23.0845 40.18 20.5001C40.18 17.9157 39.671 15.3565 38.682 12.9689C37.6929 10.5812 36.2433 8.41166 34.4159 6.58421C32.5884 4.75675 30.4189 3.30713 28.0312 2.31812C25.6435 1.32911 23.0844 0.820068 20.5 0.820068V0.820068ZM30.75 28.4725C30.75 29.7251 29.725 30.7501 28.4725 30.7501H12.5276C11.275 30.7501 10.25 29.7251 10.25 28.4725V12.5276C10.25 11.2751 11.275 10.2501 12.5276 10.2501H28.4725C29.725 10.2501 30.75 11.2751 30.75 12.5276V28.4725V28.4725Z" fill="#F0D286"/>
</svg>
