<svg width="90" height="164" viewBox="0 0 80 154" fill="none" xmlns="http://www.w3.org/2000/svg">
<path d="M40 0C18 0 0 18 0 40V78C0 100 18 118 40 118C62 118 80 100 80 78V40C80 18 62 0 40 0ZM68.6 78C68.6 93.8 55.8 106.6 40 106.6C24.2 106.6 11.4 93.8 11.4 78V40C11.4 24.2 24.2 11.4 40 11.4C55.8 11.4 68.6 24.2 68.6 40V78Z" fill="#ffffff"/>
<path d="M40.0004 23.8C36.8004 23.8 34.4004 26.4 34.4004 29.4V44.8C34.4004 48 37.0004 50.4 40.0004 50.4C43.0004 50.4 45.6004 47.8 45.6004 44.8V29.4C45.6004 26.4 43.2004 23.8 40.0004 23.8Z" fill="#ffffff"/>
<path d="M49.7998 130.6L39.9998 140.4L30.1998 130.6C27.9998 128.4 24.3998 128.4 22.1998 130.6C19.9998 132.8 19.9998 136.4 22.1998 138.6L35.9998 152.4C37.1998 153.6 38.5998 154 39.9998 154C41.3998 154 42.9998 153.4 43.9998 152.4L57.7998 138.6C59.9998 136.4 59.9998 132.8 57.7998 130.6C55.5998 128.4 51.9998 128.4 49.7998 130.6Z" fill="#ffffff"/>
</svg>
