<svg width="41" height="41" viewBox="0 0 41 41" fill="none" xmlns="http://www.w3.org/2000/svg">
<path d="M18.5118 12.5799L13.8601 7.21054C13.3239 6.59179 12.3408 6.59454 11.7179 7.21879L7.89264 11.0509C6.75414 12.1908 6.42826 13.8834 7.08689 15.2405C11.0216 23.3874 17.592 29.9669 25.7333 33.913C27.089 34.5717 28.7803 34.2458 29.9188 33.1059L33.7798 29.238C34.4054 28.6124 34.4068 27.6238 33.7825 27.0875L28.3925 22.4607C27.8288 21.9767 26.9529 22.0399 26.3878 22.6064L24.5123 24.4847C24.4162 24.5853 24.2899 24.6516 24.1525 24.6735C24.0151 24.6954 23.8744 24.6715 23.7519 24.6057C20.6863 22.8403 18.1433 20.294 16.3819 17.226C16.3159 17.1033 16.292 16.9624 16.3139 16.8248C16.3358 16.6872 16.4021 16.5605 16.5029 16.4643L18.3729 14.5929C18.9394 14.0237 19.0013 13.1437 18.5118 12.5785V12.5799Z" stroke="white" stroke-width="2" stroke-linecap="round" stroke-linejoin="round"/>
</svg>
