<svg width="28" height="28" viewBox="0 0 28 28" fill="none" xmlns="http://www.w3.org/2000/svg">
<path d="M27.6937 0.209959C27.8374 0.332568 27.9375 0.498357 27.9791 0.68256C28.0207 0.866763 28.0017 1.05949 27.9247 1.23196C25.2472 7.23446 19.6245 15.5295 15.5085 19.852C14.3548 21.0612 12.932 21.9809 11.3557 22.5365C11.3242 22.9337 11.2507 23.478 11.0757 24.0555C10.724 25.2087 9.90847 26.6437 8.08672 27.1005C6.32243 27.5206 4.49401 27.599 2.70022 27.3315C2.36667 27.2788 2.03781 27.1998 1.71672 27.0952C1.41966 27.0048 1.14279 26.8581 0.901223 26.663C0.741923 26.5275 0.619173 26.3542 0.544223 26.159C0.45133 25.9084 0.453822 25.6325 0.551223 25.3837C0.717473 24.955 1.10422 24.7187 1.35797 24.5927C2.04747 24.248 2.45172 23.8 2.87522 23.1472C3.04147 22.8952 3.19722 22.6275 3.37747 22.3212L3.58222 21.9747C3.84647 21.5285 4.15272 21.0297 4.53772 20.4907C5.46172 19.1975 6.63947 18.872 7.59322 18.9227C7.81372 18.935 8.01847 18.9665 8.20222 19.0067C8.31072 18.7057 8.45072 18.3417 8.61872 17.9427C9.07547 16.8595 9.77022 15.4595 10.696 14.322C14.504 9.64946 21.511 3.46146 26.6507 0.139959C26.809 0.0378279 26.9959 -0.0105245 27.1838 0.00208671C27.3717 0.014698 27.5506 0.0875998 27.6937 0.209959V0.209959ZM8.23372 20.846C8.0015 20.7449 7.75328 20.6857 7.50047 20.671C7.06997 20.6482 6.49772 20.7585 5.96222 21.5092C5.61747 21.9905 5.34097 22.4402 5.08722 22.869L4.90347 23.1787C4.71797 23.4955 4.53072 23.8122 4.34347 24.1027C3.98906 24.6769 3.53927 25.1865 3.01347 25.6095C4.22097 25.8055 6.05147 25.8037 7.66322 25.3995C8.64147 25.1562 9.13847 24.4037 9.40097 23.5445C9.52768 23.1176 9.60173 22.6768 9.62147 22.232L8.23372 20.846V20.846ZM10.7537 20.8915C10.9637 20.8215 11.2385 20.7165 11.5552 20.5712C12.5633 20.1035 13.4746 19.4505 14.2415 18.6462C17.5665 15.1532 21.9625 8.89871 24.8325 3.54196C20.3 6.91421 15.092 11.697 12.054 15.428C11.2805 16.3782 10.6627 17.6032 10.2305 18.6235C10.0187 19.1275 9.85597 19.5685 9.74922 19.8835V19.8852L10.7555 20.8915H10.7537ZM2.05097 26.2115L2.06322 26.2027C2.05946 26.2056 2.05534 26.2079 2.05097 26.2097V26.2115ZM8.31947 20.8862L8.32297 20.888H8.31947V20.8862Z" fill="#E6A705"/>
</svg>
