<svg width="37" height="37" viewBox="0 0 37 37" fill="none" xmlns="http://www.w3.org/2000/svg">
<path d="M34.5755 30.5358L32.3894 22.8359V6.07031C32.3894 5.43076 31.8727 4.91406 31.2332 4.91406H5.79569C5.15614 4.91406 4.63944 5.43076 4.63944 6.07031V22.8359L2.4534 30.5358C2.18241 31.291 2.73885 32.0859 3.541 32.0859H33.4879C34.29 32.0859 34.8465 31.291 34.5755 30.5358ZM7.241 7.51562H29.7879V21.7881H7.241V7.51562V7.51562ZM15.4901 29.4844L15.7828 28.1475H21.2136L21.5062 29.4844H15.4901V29.4844ZM23.5839 29.4844L22.8937 26.3517C22.8648 26.218 22.7456 26.124 22.6119 26.124H14.3881C14.2508 26.124 14.1351 26.218 14.1062 26.3517L13.4161 29.4844H5.45604L6.98446 24.1006H30.0444L31.5728 29.4844H23.5839Z" fill="#E6A705"/>
</svg>
