<?xml version="1.0" encoding="UTF-8"?>
<svg id="Layer_2" data-name="Layer 2" xmlns="http://www.w3.org/2000/svg" viewBox="0 0 561.58 937.51">
  <defs>
    <style>
      .cls-1 {
        fill: #0d5e7d;
      }

      .cls-2 {
        isolation: isolate;
      }

      .cls-3 {
        fill: #1d7ca1;
      }

      .cls-4 {
        fill: #02536e;
      }

      .cls-5 {
        fill: #c12150;
      }

      .cls-6 {
        fill: #2186af;
      }

      .cls-7 {
        fill: #03526e;
      }

      .cls-8 {
        fill: #ffffff;
      }
    </style>
  </defs>
  <g id="Layer_1-2" data-name="Layer 1">
    <path class="cls-5" d="m559.51,639.64l-124.47,72.22-11.65,19.92c-1.89-.96-3.86-1.47-5.89-1.47-13.87,0-25.11,23.66-25.11,52.85,0,25.49,8.57,46.76,19.98,51.75l-7.03,35.56,30.36-13.01,123.8-76.91v-140.91Z"/>
    <g>
      <g class="cls-2">
        <polygon class="cls-3" points="518.09 304.33 517.32 579.49 283.17 716.78 283.94 441.62 518.09 304.33"/>
        <polygon class="cls-1" points="283.94 441.62 283.17 716.78 47.49 579.49 48.27 304.33 283.94 441.62"/>
        <polygon class="cls-6" points="518.09 304.33 283.94 441.62 48.27 304.33 282.41 167.04 518.09 304.33"/>
      </g>
      <g>
        <g class="cls-2">
          <polygon class="cls-7" points="167.87 530.24 167.6 627.13 84.41 675.48 84.68 578.59 167.87 530.24"/>
          <polygon class="cls-1" points="84.68 578.59 84.41 675.48 .67 627.14 .95 530.24 84.68 578.59"/>
          <polygon class="cls-4" points="167.87 530.24 84.68 578.59 .95 530.24 84.14 481.9 167.87 530.24"/>
        </g>
        <g class="cls-2">
          <polygon class="cls-7" points="168.19 418.73 167.92 515.62 84.72 563.96 85 467.07 168.19 418.73"/>
          <polygon class="cls-1" points="85 467.07 84.72 563.96 .99 515.62 1.26 418.73 85 467.07"/>
          <polygon class="cls-7" points="168.19 418.73 85 467.07 1.26 418.73 84.46 370.38 168.19 418.73"/>
        </g>
        <g class="cls-2">
          <polygon class="cls-3" points="168.06 305.21 167.78 402.1 84.59 450.45 84.86 353.56 168.06 305.21"/>
          <polygon class="cls-1" points="84.86 353.56 84.59 450.45 .85 402.1 1.13 305.21 84.86 353.56"/>
          <polygon class="cls-6" points="168.06 305.21 84.86 353.56 1.13 305.21 84.32 256.87 168.06 305.21"/>
        </g>
      </g>
      <g class="cls-2">
        <polygon class="cls-3" points="559.51 529.34 559.23 626.24 476.04 674.58 476.32 577.69 559.51 529.34"/>
        <polygon class="cls-1" points="476.32 577.69 476.04 674.58 392.31 626.24 392.58 529.34 476.32 577.69"/>
        <polygon class="cls-6" points="559.51 529.34 476.32 577.69 392.58 529.34 475.77 481 559.51 529.34"/>
      </g>
      <g>
        <g class="cls-2">
          <polygon class="cls-3" points="363.74 190.92 363.47 287.81 280.27 336.16 280.55 239.27 363.74 190.92"/>
          <polygon class="cls-1" points="280.55 239.27 280.27 336.16 196.54 287.82 196.81 190.92 280.55 239.27"/>
          <polygon class="cls-6" points="363.74 190.92 280.55 239.27 196.81 190.92 280 142.58 363.74 190.92"/>
        </g>
        <g class="cls-2">
          <polygon class="cls-3" points="266.42 249.91 266.15 346.8 182.95 395.15 183.23 298.26 266.42 249.91"/>
          <polygon class="cls-1" points="183.23 298.26 182.95 395.15 99.22 346.81 99.49 249.91 183.23 298.26"/>
          <polygon class="cls-6" points="266.42 249.91 183.23 298.26 99.49 249.91 182.68 201.57 266.42 249.91"/>
        </g>
        <g class="cls-2">
          <polygon class="cls-7" points="168.58 305.74 168.31 402.63 85.12 450.98 85.39 354.09 168.58 305.74"/>
          <polygon class="cls-1" points="85.39 354.09 85.12 450.98 1.38 402.63 1.65 305.74 85.39 354.09"/>
          <polygon class="cls-6" points="168.58 305.74 85.39 354.09 1.65 305.74 84.85 257.4 168.58 305.74"/>
        </g>
      </g>
      <g class="cls-2">
        <polygon class="cls-3" points="559.82 417.83 559.55 514.72 476.36 563.07 476.63 466.17 559.82 417.83"/>
        <polygon class="cls-1" points="476.63 466.17 476.36 563.07 392.62 514.72 392.9 417.83 476.63 466.17"/>
        <polygon class="cls-6" points="559.82 417.83 476.63 466.17 392.9 417.83 476.09 369.48 559.82 417.83"/>
      </g>
      <g>
        <g class="cls-2">
          <polygon class="cls-7" points="265.03 588.33 264.75 685.22 181.56 733.57 181.83 636.68 265.03 588.33"/>
          <polygon class="cls-1" points="181.83 636.68 181.56 733.57 97.82 685.23 98.1 588.33 181.83 636.68"/>
          <polygon class="cls-4" points="265.03 588.33 181.83 636.68 98.1 588.33 181.29 539.99 265.03 588.33"/>
        </g>
        <g class="cls-2">
          <polygon class="cls-7" points="265.34 476.82 265.07 573.71 181.88 622.05 182.15 525.16 265.34 476.82"/>
          <polygon class="cls-1" points="182.15 525.16 181.88 622.05 98.14 573.71 98.42 476.82 182.15 525.16"/>
          <polygon class="cls-4" points="265.34 476.82 182.15 525.16 98.42 476.82 181.61 428.47 265.34 476.82"/>
        </g>
        <g class="cls-2">
          <polygon class="cls-3" points="265.21 363.3 264.93 460.19 181.74 508.54 182.02 411.65 265.21 363.3"/>
          <polygon class="cls-1" points="182.02 411.65 181.74 508.54 98.01 460.19 98.28 363.3 182.02 411.65"/>
          <polygon class="cls-6" points="265.21 363.3 182.02 411.65 98.28 363.3 181.47 314.96 265.21 363.3"/>
        </g>
      </g>
      <g class="cls-2">
        <polygon class="cls-3" points="462.19 588.33 461.91 685.22 378.72 733.57 379 636.68 462.19 588.33"/>
        <polygon class="cls-1" points="379 636.68 378.72 733.57 294.98 685.23 295.26 588.33 379 636.68"/>
        <polygon class="cls-6" points="462.19 588.33 379 636.68 295.26 588.33 378.45 539.99 462.19 588.33"/>
      </g>
      <g class="cls-2">
        <polygon class="cls-3" points="462.5 476.82 462.23 573.71 379.04 622.05 379.31 525.16 462.5 476.82"/>
        <polygon class="cls-1" points="379.31 525.16 379.04 622.05 295.3 573.71 295.58 476.82 379.31 525.16"/>
        <polygon class="cls-6" points="462.5 476.82 379.31 525.16 295.58 476.82 378.77 428.47 462.5 476.82"/>
      </g>
      <g class="cls-2">
        <polygon class="cls-3" points="364.35 644.16 364.07 741.05 280.88 789.4 281.16 692.51 364.35 644.16"/>
        <polygon class="cls-1" points="281.16 692.51 280.88 789.4 197.15 741.05 197.42 644.16 281.16 692.51"/>
        <polygon class="cls-4" points="364.35 644.16 281.16 692.51 197.42 644.16 280.61 595.82 364.35 644.16"/>
      </g>
      <g>
        <g class="cls-2">
          <polygon class="cls-3" points="461.31 248.7 461.04 345.59 377.85 393.94 378.12 297.05 461.31 248.7"/>
          <polygon class="cls-1" points="378.12 297.05 377.85 393.94 294.11 345.59 294.39 248.7 378.12 297.05"/>
          <polygon class="cls-6" points="461.31 248.7 378.12 297.05 294.39 248.7 377.58 200.36 461.31 248.7"/>
        </g>
        <g class="cls-2">
          <polygon class="cls-3" points="363.99 307.69 363.72 404.58 280.53 452.93 280.8 356.04 363.99 307.69"/>
          <polygon class="cls-1" points="280.8 356.04 280.53 452.93 196.79 404.58 197.07 307.69 280.8 356.04"/>
          <polygon class="cls-6" points="363.99 307.69 280.8 356.04 197.07 307.69 280.26 259.35 363.99 307.69"/>
        </g>
        <g class="cls-2">
          <polygon class="cls-7" points="266.16 363.52 265.88 460.41 182.69 508.76 182.96 411.86 266.16 363.52"/>
          <polygon class="cls-1" points="182.96 411.86 182.69 508.76 98.95 460.41 99.23 363.52 182.96 411.86"/>
          <polygon class="cls-6" points="266.16 363.52 182.96 411.86 99.23 363.52 182.42 315.17 266.16 363.52"/>
        </g>
      </g>
      <g class="cls-2">
        <polygon class="cls-3" points="364.67 532.65 364.39 629.54 281.2 677.88 281.47 580.99 364.67 532.65"/>
        <polygon class="cls-1" points="281.47 580.99 281.2 677.88 197.46 629.54 197.74 532.65 281.47 580.99"/>
        <polygon class="cls-4" points="364.67 532.65 281.47 580.99 197.74 532.65 280.93 484.3 364.67 532.65"/>
      </g>
      <g>
        <g class="cls-2">
          <polygon class="cls-3" points="559.69 304.31 559.41 401.2 476.22 449.55 476.5 352.66 559.69 304.31"/>
          <polygon class="cls-1" points="476.5 352.66 476.22 449.55 392.49 401.2 392.76 304.31 476.5 352.66"/>
          <polygon class="cls-6" points="559.69 304.31 476.5 352.66 392.76 304.31 475.95 255.97 559.69 304.31"/>
        </g>
        <g class="cls-2">
          <polygon class="cls-3" points="462.37 363.3 462.09 460.19 378.9 508.54 379.18 411.65 462.37 363.3"/>
          <polygon class="cls-1" points="379.18 411.65 378.9 508.54 295.17 460.19 295.44 363.3 379.18 411.65"/>
          <polygon class="cls-6" points="462.37 363.3 379.18 411.65 295.44 363.3 378.63 314.96 462.37 363.3"/>
        </g>
        <g class="cls-2">
          <polygon class="cls-3" points="364.53 419.13 364.26 516.02 281.06 564.37 281.34 467.47 364.53 419.13"/>
          <polygon class="cls-1" points="281.34 467.47 281.06 564.37 197.33 516.02 197.6 419.13 281.34 467.47"/>
          <polygon class="cls-6" points="364.53 419.13 281.34 467.47 197.6 419.13 280.79 370.78 364.53 419.13"/>
        </g>
      </g>
    </g>
    <g>
      <path class="cls-8" d="m28.91,800.17L.17,783.26l-.17-145.6,28.74,16.91.07,57.41,8.44,4.97,23.8-43.37,32.31,19.01-33.69,52.93,33.86,92.67-32.31-19.01-23.94-71.66-8.44-4.97.07,57.62Z"/>
      <path class="cls-8" d="m111.47,839.17c-8.72-12.2-13.09-26.89-13.11-44.09l-.11-99.63,28.74,16.91.11,98.18c0,6.38,1.64,11.91,4.89,16.59,3.25,4.69,7.15,8.36,11.7,11.04,4.55,2.67,8.42,3.57,11.61,2.67,3.19-.9,4.78-4.53,4.77-10.91l-.11-98.18,28.74,16.91.11,99.63c.02,17.2-4.32,26.76-13.03,28.71-8.71,1.95-19.39-.81-32.06-8.26-12.77-7.51-23.52-17.37-32.25-29.57Z"/>
      <path class="cls-8" d="m200.22,900.94l-.17-145.6,33.45,19.68c9.74,5.73,17.75,11.28,24.03,16.63,6.28,5.36,11.37,11.96,15.28,19.79,3.9,7.84,5.86,17.38,5.87,28.61,0,6.38-.96,11.39-2.9,15.02-1.94,3.64-4.35,5.9-7.21,6.77-2.87.88-5.71.49-8.52-1.17,7.14,4.2,13.13,10.63,17.95,19.29,4.82,8.66,7.24,19.3,7.26,31.91.01,10.54-1.93,17.54-5.82,21-3.89,3.46-9.08,4.29-15.58,2.48-6.49-1.81-14.4-5.45-23.7-10.93l-39.95-23.5Zm33.35-71.01c4.11,2.42,7.28,4.04,9.5,4.86,2.22.82,3.92.71,5.11-.32,1.19-1.03,1.78-3.42,1.78-7.17s-.6-6.8-1.8-9.16c-1.19-2.37-2.87-4.42-5.04-6.19-2.17-1.76-5.36-3.88-9.58-6.36l-4.71-2.77.03,24.34,4.71,2.77Zm6.56,63.93c5.85,3.44,10.04,4.87,12.58,4.28,2.54-.58,3.81-3.72,3.8-9.4,0-5.54-1.23-10.08-3.67-13.59-2.44-3.51-6.31-6.9-11.61-10.16l-12.34-7.26.03,29.54,11.2,6.59Z"/>
    </g>
    <g>
      <path class="cls-8" d="m330.62,920.27l-28.84,17.24-.68-145.6,28.84-17.24.68,145.6Z"/>
      <path class="cls-8" d="m370.86,896.22l-28.84,17.24-.68-145.6,28.84-17.24.27,57.41,8.47-5.06,23.69-71.72,32.42-19.38-33.55,93.06,34.23,52.54-32.42,19.38-24.22-43.3-8.47,5.06.27,57.62Z"/>
    </g>
    <g>
      <path class="cls-8" d="m32.47,275.47l-25.94,15.15.49-131.6,25.94-15.15,35.78,51.51.27-72.57,25.94-15.15-.49,131.6-25.94,15.15-35.78-51.51-.27,72.57Z"/>
      <path class="cls-8" d="m126.7,220.44l-26.38,15.41,34.78-151.63,26.09-15.23,33.8,111.57-26.38,15.41-4.9-18.33-31.95,18.66-5.06,24.15Zm21.28-100.6l-9.53,44.96,18.76-10.96-9.23-34Z"/>
      <path class="cls-8" d="m278.82,131.6l-76.5,44.68.1-27.63,45.57-102.77-45.28,26.45.1-27.64L279.31,0l-.1,27.64-45.57,102.77,45.28-26.45-.1,27.63Z"/>
    </g>
    <g>
      <path class="cls-8" d="m317.4,150.31l-27.82-16.36,37.7-125.02,27.51,16.18,34.63,167.56-27.82-16.36-5.01-26.71-33.69-19.82-5.5,20.53Zm23.13-85.23l-10.35,38.07,19.78,11.64-9.43-49.71Z"/>
      <path class="cls-8" d="m397.46,197.4l1.54-146.29,34.93,20.54c12.36,7.27,22.58,17.03,30.64,29.27,8.06,12.24,12,26.65,11.83,43.23l-.08,7.94c-.19,18.53-5.95,28.53-17.26,30.01l20.95,63.84-31.06-18.27-15.61-53.34-.46-.27-7.57-4.45-.46,43.89-27.36-16.09Zm35.71-54.06c10.41,6.12,15.67,3.19,15.8-8.79l.05-5.02c.12-11.98-5.02-21.03-15.42-27.15l-7.57-4.45-.43,40.96,7.57,4.46Z"/>
      <path class="cls-8" d="m518.47,268.57l-27.36-16.09,1.54-146.29,27.36,16.09-1.54,146.29Z"/>
      <path class="cls-8" d="m560.05,293.03l-27.36-16.09,1.54-146.29,27.36,16.09-1.54,146.29Z"/>
    </g>
  </g>
</svg>
