<svg width="84" height="83" viewBox="0 0 84 83" fill="none" xmlns="http://www.w3.org/2000/svg">
<path fill-rule="evenodd" clip-rule="evenodd" d="M78 26H81V80V83H78H5H2V80V49H5V80L78 80V26Z" fill="white"/>
<path d="M2.162 20V4.36H4.692C5.90333 5.93933 7.05333 7.61067 8.142 9.374C9.23067 11.122 10.2197 12.9237 11.109 14.779L10.902 10.11V4.36H13.547V20H11.017C10.0357 18.068 9.016 16.1283 7.958 14.181C6.91533 12.2183 5.80367 10.3707 4.623 8.638L4.807 14.02V20H2.162ZM26.1882 20L25.2222 16.941H19.8632L18.8972 20H16.1602L21.3812 4.36H23.8192L29.0632 20H26.1882ZM21.3582 12.157L20.6452 14.411H24.4172L23.7042 12.157L22.5542 8.201L21.3582 12.157ZM40.3927 17.355V20H30.3877V17.585L36.9197 7.005H30.6177V4.36H40.1627V6.775L33.6307 17.355H40.3927ZM51.7038 20L50.7378 16.941H45.3788L44.4128 20H41.6758L46.8968 4.36H49.3348L54.5788 20H51.7038ZM46.8738 12.157L46.1608 14.411H49.9328L49.2198 12.157L48.0698 8.201L46.8738 12.157ZM59.9513 14.25V20H57.1913V4.36H62.4123C63.9916 4.36 65.203 4.76633 66.0463 5.579C66.905 6.37633 67.3343 7.44967 67.3343 8.799V9.788C67.3343 10.6773 67.1426 11.4593 66.7593 12.134C66.376 12.8087 65.824 13.3223 65.1033 13.675C66.3606 15.8217 67.434 17.93 68.3233 20H65.1723C64.4056 18.0833 63.4933 16.1667 62.4353 14.25H59.9513ZM62.4123 6.89H59.9513V11.72H62.4123C63.087 11.72 63.6006 11.5513 63.9533 11.214C64.3213 10.8613 64.5053 10.386 64.5053 9.788V8.799C64.5053 8.21633 64.3213 7.75633 63.9533 7.419C63.6006 7.06633 63.087 6.89 62.4123 6.89ZM73.9669 20H71.2069V4.36H73.9669V20ZM81.0421 20H78.2821V4.36H81.0421V20ZM10.465 42L6.555 35.169C6.29433 35.4603 6.026 35.7517 5.75 36.043C5.48933 36.3343 5.21333 36.6333 4.922 36.94V42H2.162V26.36H4.922V33.789C6.08733 32.455 7.084 31.19 7.912 29.994C8.74 28.7827 9.453 27.5713 10.051 26.36H13.064C12.4047 27.6787 11.6993 28.9283 10.948 30.109C10.212 31.2743 9.43 32.3553 8.602 33.352L13.8 42H10.465ZM15.6299 26.36H18.4589V36.388C18.4589 37.4 18.6813 38.1973 19.1259 38.78C19.5706 39.3473 20.2836 39.631 21.2649 39.631C22.2463 39.631 22.9593 39.3473 23.4039 38.78C23.8486 38.1973 24.0709 37.4 24.0709 36.388V26.36H26.8999V36.388C26.8999 38.1513 26.4323 39.5697 25.4969 40.643C24.5616 41.701 23.1509 42.23 21.2649 42.23C19.3636 42.23 17.9453 41.701 17.0099 40.643C16.0899 39.5697 15.6299 38.1513 15.6299 36.388V26.36ZM30.8671 42V26.36H35.6281C36.7934 26.36 37.7134 26.5287 38.3881 26.866C39.0781 27.2033 39.5687 27.6787 39.8601 28.292C40.1667 28.9053 40.3201 29.626 40.3201 30.454V31.098C40.3201 32.3093 39.7987 33.237 38.7561 33.881C39.4921 34.1723 40.0517 34.594 40.4351 35.146C40.8184 35.698 41.0101 36.3573 41.0101 37.124V37.768C41.0101 38.6113 40.8567 39.355 40.5501 39.999C40.2434 40.6277 39.7374 41.1183 39.0321 41.471C38.3267 41.8237 37.3837 42 36.2031 42H30.8671ZM35.6281 28.89H33.6271V32.8H35.6281C36.2414 32.8 36.7014 32.662 37.0081 32.386C37.3301 32.0947 37.4911 31.7037 37.4911 31.213V30.454C37.4911 29.9633 37.3301 29.58 37.0081 29.304C36.7014 29.028 36.2414 28.89 35.6281 28.89ZM36.2031 35.33H33.6271V39.47H36.2031C36.8471 39.47 37.3377 39.3167 37.6751 39.01C38.0124 38.7033 38.1811 38.2893 38.1811 37.768V37.009C38.1811 36.4877 38.0124 36.0813 37.6751 35.79C37.3377 35.4833 36.8471 35.33 36.2031 35.33ZM47.0812 42H44.3212V26.36H47.0812V42ZM59.6994 42L55.7894 35.169C55.5287 35.4603 55.2604 35.7517 54.9844 36.043C54.7237 36.3343 54.4477 36.6333 54.1564 36.94V42H51.3964V26.36H54.1564V33.789C55.3217 32.455 56.3184 31.19 57.1464 29.994C57.9744 28.7827 58.6874 27.5713 59.2854 26.36H62.2984C61.639 27.6787 60.9337 28.9283 60.1824 30.109C59.4464 31.2743 58.6644 32.3553 57.8364 33.352L63.0344 42H59.6994Z" fill="white"/>
<path d="M2.162 20V4.36H4.692C5.90333 5.93933 7.05333 7.61067 8.142 9.374C9.23067 11.122 10.2197 12.9237 11.109 14.779L10.902 10.11V4.36H13.547V20H11.017C10.0357 18.068 9.016 16.1283 7.958 14.181C6.91533 12.2183 5.80367 10.3707 4.623 8.638L4.807 14.02V20H2.162ZM26.1882 20L25.2222 16.941H19.8632L18.8972 20H16.1602L21.3812 4.36H23.8192L29.0632 20H26.1882ZM21.3582 12.157L20.6452 14.411H24.4172L23.7042 12.157L22.5542 8.201L21.3582 12.157ZM40.3927 17.355V20H30.3877V17.585L36.9197 7.005H30.6177V4.36H40.1627V6.775L33.6307 17.355H40.3927ZM51.7038 20L50.7378 16.941H45.3788L44.4128 20H41.6758L46.8968 4.36H49.3348L54.5788 20H51.7038ZM46.8738 12.157L46.1608 14.411H49.9328L49.2198 12.157L48.0698 8.201L46.8738 12.157ZM59.9513 14.25V20H57.1913V4.36H62.4123C63.9916 4.36 65.203 4.76633 66.0463 5.579C66.905 6.37633 67.3343 7.44967 67.3343 8.799V9.788C67.3343 10.6773 67.1426 11.4593 66.7593 12.134C66.376 12.8087 65.824 13.3223 65.1033 13.675C66.3606 15.8217 67.434 17.93 68.3233 20H65.1723C64.4056 18.0833 63.4933 16.1667 62.4353 14.25H59.9513ZM62.4123 6.89H59.9513V11.72H62.4123C63.087 11.72 63.6006 11.5513 63.9533 11.214C64.3213 10.8613 64.5053 10.386 64.5053 9.788V8.799C64.5053 8.21633 64.3213 7.75633 63.9533 7.419C63.6006 7.06633 63.087 6.89 62.4123 6.89ZM73.9669 20H71.2069V4.36H73.9669V20ZM81.0421 20H78.2821V4.36H81.0421V20ZM10.465 42L6.555 35.169C6.29433 35.4603 6.026 35.7517 5.75 36.043C5.48933 36.3343 5.21333 36.6333 4.922 36.94V42H2.162V26.36H4.922V33.789C6.08733 32.455 7.084 31.19 7.912 29.994C8.74 28.7827 9.453 27.5713 10.051 26.36H13.064C12.4047 27.6787 11.6993 28.9283 10.948 30.109C10.212 31.2743 9.43 32.3553 8.602 33.352L13.8 42H10.465ZM15.6299 26.36H18.4589V36.388C18.4589 37.4 18.6813 38.1973 19.1259 38.78C19.5706 39.3473 20.2836 39.631 21.2649 39.631C22.2463 39.631 22.9593 39.3473 23.4039 38.78C23.8486 38.1973 24.0709 37.4 24.0709 36.388V26.36H26.8999V36.388C26.8999 38.1513 26.4323 39.5697 25.4969 40.643C24.5616 41.701 23.1509 42.23 21.2649 42.23C19.3636 42.23 17.9453 41.701 17.0099 40.643C16.0899 39.5697 15.6299 38.1513 15.6299 36.388V26.36ZM30.8671 42V26.36H35.6281C36.7934 26.36 37.7134 26.5287 38.3881 26.866C39.0781 27.2033 39.5687 27.6787 39.8601 28.292C40.1667 28.9053 40.3201 29.626 40.3201 30.454V31.098C40.3201 32.3093 39.7987 33.237 38.7561 33.881C39.4921 34.1723 40.0517 34.594 40.4351 35.146C40.8184 35.698 41.0101 36.3573 41.0101 37.124V37.768C41.0101 38.6113 40.8567 39.355 40.5501 39.999C40.2434 40.6277 39.7374 41.1183 39.0321 41.471C38.3267 41.8237 37.3837 42 36.2031 42H30.8671ZM35.6281 28.89H33.6271V32.8H35.6281C36.2414 32.8 36.7014 32.662 37.0081 32.386C37.3301 32.0947 37.4911 31.7037 37.4911 31.213V30.454C37.4911 29.9633 37.3301 29.58 37.0081 29.304C36.7014 29.028 36.2414 28.89 35.6281 28.89ZM36.2031 35.33H33.6271V39.47H36.2031C36.8471 39.47 37.3377 39.3167 37.6751 39.01C38.0124 38.7033 38.1811 38.2893 38.1811 37.768V37.009C38.1811 36.4877 38.0124 36.0813 37.6751 35.79C37.3377 35.4833 36.8471 35.33 36.2031 35.33ZM47.0812 42H44.3212V26.36H47.0812V42ZM59.6994 42L55.7894 35.169C55.5287 35.4603 55.2604 35.7517 54.9844 36.043C54.7237 36.3343 54.4477 36.6333 54.1564 36.94V42H51.3964V26.36H54.1564V33.789C55.3217 32.455 56.3184 31.19 57.1464 29.994C57.9744 28.7827 58.6874 27.5713 59.2854 26.36H62.2984C61.639 27.6787 60.9337 28.9283 60.1824 30.109C59.4464 31.2743 58.6644 32.3553 57.8364 33.352L63.0344 42H59.6994Z" fill="white"/>
</svg>
