<svg width="321" height="335" viewBox="0 0 321 335" fill="none" xmlns="http://www.w3.org/2000/svg">
<path d="M56.7627 80H37.793L18.2373 42.2803H17.9077C18.0298 43.4277 18.1396 44.8071 18.2373 46.4185C18.335 48.0298 18.4204 49.6777 18.4937 51.3623C18.5669 53.0225 18.6035 54.5239 18.6035 55.8667V80H5.78613V26.46H24.6826L44.165 63.667H44.3848C44.3115 62.4951 44.2383 61.1401 44.165 59.6021C44.0918 58.0396 44.0186 56.4648 43.9453 54.8779C43.8965 53.291 43.8721 51.8872 43.8721 50.6665V26.46H56.7627V80ZM101.184 80L98.5474 69.9658H81.1523L78.4424 80H62.5488L80.0171 26.2402H99.3164L117.004 80H101.184ZM95.5444 58.1006L93.2373 49.3115C92.9932 48.3594 92.6392 47.0044 92.1753 45.2466C91.7114 43.4644 91.2476 41.6333 90.7837 39.7534C90.3442 37.8491 90.0024 36.2866 89.7583 35.0659C89.5386 36.2866 89.2212 37.8003 88.8062 39.6069C88.4155 41.3892 88.0005 43.1592 87.561 44.917C87.146 46.6748 86.7798 48.1396 86.4624 49.3115L84.1553 58.1006H95.5444ZM160.986 80H119.275V71.0645L142.456 38.1421H119.824V26.46H160.4V35.3589L137.219 68.3179H160.986V80ZM201.526 80L198.889 69.9658H181.494L178.784 80H162.891L180.359 26.2402H199.658L217.346 80H201.526ZM195.886 58.1006L193.579 49.3115C193.335 48.3594 192.981 47.0044 192.517 45.2466C192.053 43.4644 191.589 41.6333 191.125 39.7534C190.686 37.8491 190.344 36.2866 190.1 35.0659C189.88 36.2866 189.563 37.8003 189.148 39.6069C188.757 41.3892 188.342 43.1592 187.903 44.917C187.488 46.6748 187.122 48.1396 186.804 49.3115L184.497 58.1006H195.886ZM240.71 26.46C245.569 26.46 249.609 27.0581 252.832 28.2544C256.055 29.4263 258.472 31.1841 260.083 33.5278C261.719 35.8716 262.537 38.7891 262.537 42.2803C262.537 44.4531 262.17 46.4307 261.438 48.2129C260.706 49.9951 259.656 51.5942 258.289 53.0103C256.946 54.4019 255.334 55.6226 253.455 56.6724L269.055 80H252.649L241.296 60.5176H237.634V80H223.169V26.46H240.71ZM240.491 37.4097H237.634V49.6411H240.344C242.566 49.6411 244.385 49.1528 245.801 48.1763C247.217 47.1997 247.925 45.4541 247.925 42.9395C247.925 41.2061 247.339 39.8511 246.167 38.8745C244.995 37.8979 243.103 37.4097 240.491 37.4097ZM273.926 80V26.46H288.464V80H273.926ZM300.073 80V26.46H314.612V80H300.073Z" fill="white"/>
<path d="M51.5259 154H35.1929L24.6094 133.529L20.3247 136.092V154H5.78613V100.46H20.3247V123.714C20.9351 122.542 21.6309 121.371 22.4121 120.199C23.2178 119.027 23.999 117.916 24.7559 116.866L35.9985 100.46H51.8188L34.9365 124.447L51.5259 154ZM102.869 100.46V132.687C102.869 137.179 102.014 141.085 100.305 144.405C98.5962 147.701 96.0327 150.252 92.6147 152.059C89.1968 153.841 84.9121 154.732 79.7607 154.732C72.3877 154.732 66.7603 152.84 62.8784 149.056C58.9966 145.272 57.0557 139.925 57.0557 133.016V100.46H71.5942V131.881C71.5942 135.665 72.3022 138.412 73.7183 140.121C75.1343 141.83 77.2217 142.684 79.9805 142.684C81.958 142.684 83.5693 142.318 84.8145 141.585C86.0596 140.829 86.9629 139.645 87.5244 138.033C88.1104 136.422 88.4033 134.347 88.4033 131.808V100.46H102.869ZM114.111 100.46H132.788C140.527 100.46 146.045 101.607 149.341 103.902C152.637 106.197 154.285 109.493 154.285 113.79C154.285 116.134 153.857 118.124 153.003 119.759C152.173 121.395 151.111 122.689 149.817 123.641C148.547 124.593 147.241 125.24 145.898 125.582V125.948C147.363 126.314 148.816 126.925 150.256 127.779C151.721 128.609 152.93 129.867 153.882 131.551C154.858 133.211 155.347 135.47 155.347 138.326C155.347 141.573 154.517 144.369 152.856 146.712C151.221 149.056 148.877 150.863 145.825 152.132C142.773 153.377 139.148 154 134.949 154H114.111V100.46ZM128.577 121.004H132.935C135.327 121.004 137.012 120.516 137.988 119.54C138.965 118.539 139.453 117.33 139.453 115.914C139.453 114.449 138.892 113.338 137.769 112.582C136.67 111.8 134.961 111.41 132.642 111.41H128.577V121.004ZM128.577 131.588V142.831H133.667C136.182 142.831 137.939 142.293 138.94 141.219C139.941 140.121 140.442 138.753 140.442 137.118C140.442 136.166 140.222 135.274 139.783 134.444C139.368 133.59 138.647 132.906 137.622 132.394C136.597 131.856 135.181 131.588 133.374 131.588H128.577ZM164.648 154V100.46H179.187V154H164.648ZM236.536 154H220.203L209.619 133.529L205.334 136.092V154H190.796V100.46H205.334V123.714C205.945 122.542 206.641 121.371 207.422 120.199C208.228 119.027 209.009 117.916 209.766 116.866L221.008 100.46H236.829L219.946 124.447L236.536 154Z" fill="white"/>
<path fill-rule="evenodd" clip-rule="evenodd" d="M314 102H300V321H21V176H6V321V335H21H300H314V321V102Z" fill="white"/>
</svg>
