<svg width="182" height="182" viewBox="0 0 182 182" fill="none" xmlns="http://www.w3.org/2000/svg">
<path d="M91 0C87.287 0 83.726 1.475 81.1005 4.10051C78.475 6.72601 77 10.287 77 14V84C77 87.713 78.475 91.274 81.1005 93.8995C83.726 96.525 87.287 98 91 98C94.7131 98 98.274 96.525 100.9 93.8995C103.525 91.274 105 87.713 105 84V14C105 10.287 103.525 6.72601 100.9 4.10051C98.274 1.475 94.7131 0 91 0V0ZM40.908 18.158C38.8885 18.4131 36.9867 19.2497 35.434 20.566C24.7878 28.9589 16.1855 39.659 10.2755 51.8596C4.36557 64.0603 1.30211 77.4433 1.31603 91C1.31603 140.406 41.58 180.691 91 180.691C140.42 180.691 180.691 140.406 180.691 91C180.691 62.489 167.377 36.981 146.566 20.559C145.489 19.6972 144.252 19.056 142.927 18.6721C141.602 18.2882 140.214 18.1691 138.843 18.3215C137.472 18.4739 136.144 18.8949 134.935 19.5605C133.727 20.2261 132.661 21.1231 131.8 22.2005C130.938 23.2779 130.297 24.5144 129.913 25.8396C129.529 27.1647 129.41 28.5525 129.562 29.9237C129.714 31.2949 130.135 32.6227 130.801 33.8311C131.467 35.0396 132.364 36.1052 133.441 36.967C141.627 43.3935 148.244 51.5977 152.792 60.9588C157.34 70.3199 159.699 80.5927 159.691 91C159.713 100.027 157.952 108.969 154.507 117.313C151.063 125.657 146.004 133.238 139.621 139.621C133.238 146.004 125.657 151.063 117.313 154.507C108.969 157.952 100.027 159.713 91 159.691C81.9732 159.713 73.0309 157.952 64.6869 154.507C56.3429 151.063 48.7617 146.004 42.3787 139.621C35.9958 133.238 30.9369 125.657 27.4927 117.313C24.0485 108.969 22.2869 100.027 22.309 91C22.3032 80.5931 24.6632 70.3209 29.2108 60.9602C33.7584 51.5994 40.3745 43.3949 48.559 36.967C50.4128 35.5746 51.7536 33.6078 52.3723 31.3734C52.991 29.1391 52.8527 26.7627 51.9792 24.6152C51.1056 22.4676 49.5458 20.6695 47.5431 19.5015C45.5404 18.3334 43.2074 17.861 40.908 18.158V18.158Z" fill="#08232e"/>
</svg>
